<svg width="1080" height="1080" viewBox="0 0 1080 1080" fill="none" xmlns="http://www.w3.org/2000/svg">
<g clip-path="url(#clip0_1_2)">
<path d="M584.967 93V249.428C569.964 246.954 554.784 245.714 539.579 245.721C524.66 245.719 509.764 246.904 495.033 249.266V93H584.967Z" fill="#65FF8F"/>
<path d="M584.967 313.966V738.218C555.324 744.506 524.697 744.558 495.033 738.369V313.804C524.697 307.611 555.326 307.666 584.967 313.966V313.966Z" fill="white"/>
<path d="M539.579 806.451C554.783 806.457 569.963 805.221 584.967 802.756V987H495.033V802.907C509.763 805.274 524.659 806.459 539.579 806.451V806.451Z" fill="white"/>
<path d="M259.208 526.092C259.169 545.882 261.252 565.62 265.422 584.967H93V495.011H260.905C259.776 505.333 259.21 515.709 259.208 526.092V526.092Z" fill="#65FF8F"/>
<path d="M754.244 495.011C758.557 525.072 756.558 555.7 748.376 584.945H330.781C322.583 555.703 320.584 525.071 324.913 495.011H754.244Z" fill="white"/>
<path d="M987 495.011V584.945H813.703C817.88 565.6 819.971 545.862 819.938 526.07C819.939 515.694 819.376 505.326 818.252 495.011H987Z" fill="white"/>
<path d="M367.967 304.391C344.116 322.887 323.382 345.084 306.552 370.139L192.13 255.717L255.696 192.13L367.967 304.391Z" fill="#65FF8F"/>
<path d="M715.891 652.304C698.263 676.992 675.646 697.702 649.505 713.092L540 603.587L521.38 584.967L495.033 558.62L476.413 540L431.446 495.012L352.557 416.122C367.943 389.978 388.649 367.357 413.334 349.725L540 476.413L558.62 495.012L584.967 521.358L603.587 539.978L648.554 584.945L715.891 652.304Z" fill="white"/>
<path d="M887.891 824.283L824.304 887.87L695.531 759.107C720.596 742.287 742.799 721.552 761.29 697.692L887.891 824.283Z" fill="white"/>
<path d="M539.578 309.2C554.833 309.193 570.046 310.79 584.967 313.966V431.446L666.353 350.093C690.932 367.85 711.542 390.532 726.87 416.695L648.554 495.012H754.244C758.557 525.072 756.558 555.701 748.376 584.945H648.554L715.891 652.282C698.263 676.97 675.646 697.68 649.505 713.07L584.967 648.532V738.228C555.324 744.517 524.697 744.569 495.033 738.38V648.554L430.192 713.395C404.021 698.037 381.335 677.398 363.58 652.79L431.446 584.924H330.781C322.586 555.689 320.587 525.064 324.913 495.012H431.446L352.557 416.122C367.942 389.978 388.649 367.357 413.334 349.725L495.011 431.403V313.804C509.661 310.736 524.589 309.193 539.557 309.2M539.557 308.119C524.517 308.118 509.517 309.668 494.795 312.745L493.931 312.928V428.842L414.123 349.012L413.474 348.364L412.729 348.893C387.944 366.637 367.139 389.362 351.649 415.614L351.227 416.338L351.811 416.922L428.842 493.931H324.016L323.886 494.86C319.536 525.068 321.546 555.851 329.787 585.237L330.014 586.026H428.885L362.856 652.045L362.207 652.704L362.747 653.449C380.553 678.219 403.357 698.979 429.685 714.389L430.409 714.81L431.003 714.227L494.006 651.212V739.244L494.871 739.417C524.664 745.627 555.424 745.568 585.194 739.244L586.047 739.071V651.158L648.727 713.838L649.321 714.432L650.034 714.011C676.287 698.516 699.012 677.708 716.755 652.92L717.296 652.174L716.647 651.526L651.147 586.037H749.176L749.402 585.248C757.628 555.86 759.638 525.079 755.303 494.871L755.162 493.942H651.158L727.659 417.441L728.243 416.857L727.821 416.133C712.442 389.809 691.707 367.009 666.958 349.207L666.212 348.666L665.564 349.315L586.047 428.831V313.091L585.194 312.907C570.198 309.722 554.909 308.117 539.578 308.119H539.557Z" fill="#00FF19"/>
<path d="M909.467 106.95L106.946 909.471L170.539 973.064L973.06 170.542L909.467 106.95Z" fill="#65FF8F"/>
</g>
<defs>
<clipPath id="clip0_1_2">
<rect width="894" height="894" fill="white" transform="translate(93 93)"/>
</clipPath>
</defs>
</svg>
