<svg width="400" height="150" viewBox="0 0 400 150" fill="none" xmlns="http://www.w3.org/2000/svg">
<g clip-path="url(#clip0_15_3871)">
<path d="M137.468 66.6106C138.684 64.6286 140.261 63.0745 142.198 61.9484C144.18 60.8222 146.432 60.2592 148.954 60.2592V70.1918H146.454C143.481 70.1918 141.229 70.89 139.698 72.2865C138.211 73.6829 137.468 76.1154 137.468 79.5839V98.233H128.008V60.7997H137.468V66.6106ZM190.124 78.7055C190.124 80.0569 190.034 81.2731 189.854 82.3542H162.488C162.714 85.057 163.66 87.1742 165.326 88.7057C166.993 90.2373 169.043 91.0031 171.475 91.0031C174.989 91.0031 177.489 89.494 178.975 86.476H189.178C188.097 90.0796 186.025 93.0527 182.962 95.3951C179.899 97.6924 176.137 98.8411 171.678 98.8411C168.074 98.8411 164.831 98.0528 161.948 96.4762C159.11 94.8545 156.88 92.5797 155.258 89.6517C153.682 86.7237 152.894 83.3453 152.894 79.5163C152.894 75.6424 153.682 72.2414 155.258 69.3134C156.835 66.3854 159.042 64.1331 161.88 62.5565C164.718 60.9799 167.984 60.1916 171.678 60.1916C175.236 60.1916 178.412 60.9574 181.205 62.4889C184.043 64.0205 186.228 66.2052 187.759 69.0431C189.336 71.836 190.124 75.0568 190.124 78.7055ZM180.327 76.0027C180.282 73.5703 179.403 71.6333 177.691 70.1918C175.98 68.7053 173.885 67.962 171.407 67.962C169.065 67.962 167.083 68.6828 165.461 70.1242C163.885 71.5207 162.916 73.4802 162.556 76.0027H180.327ZM211.691 60.1916C214.484 60.1916 216.939 60.7547 219.056 61.8808C221.174 62.9619 222.84 64.3809 224.056 66.1377V60.7997H233.584V98.5032C233.584 101.972 232.885 105.057 231.489 107.76C230.093 110.508 227.998 112.67 225.205 114.247C222.412 115.868 219.034 116.679 215.07 116.679C209.754 116.679 205.385 115.441 201.961 112.963C198.583 110.485 196.668 107.107 196.218 102.828H205.61C206.106 104.539 207.164 105.891 208.786 106.882C210.453 107.918 212.457 108.436 214.799 108.436C217.547 108.436 219.777 107.603 221.489 105.936C223.201 104.314 224.056 101.837 224.056 98.5032V92.6923C222.84 94.4491 221.151 95.9131 218.989 97.0843C216.872 98.2555 214.439 98.8411 211.691 98.8411C208.538 98.8411 205.655 98.0303 203.042 96.4086C200.43 94.7869 198.358 92.5121 196.826 89.5841C195.34 86.6111 194.596 83.2101 194.596 79.3812C194.596 75.5973 195.34 72.2414 196.826 69.3134C198.358 66.3854 200.407 64.1331 202.975 62.5565C205.588 60.9799 208.493 60.1916 211.691 60.1916ZM224.056 79.5163C224.056 77.219 223.606 75.2595 222.705 73.6378C221.804 71.9711 220.588 70.7098 219.056 69.854C217.525 68.953 215.881 68.5026 214.124 68.5026C212.367 68.5026 210.745 68.9305 209.259 69.7864C207.772 70.6423 206.556 71.9036 205.61 73.5703C204.709 75.1919 204.259 77.1289 204.259 79.3812C204.259 81.6335 204.709 83.6155 205.61 85.3273C206.556 86.994 207.772 88.2778 209.259 89.1787C210.79 90.0796 212.412 90.5301 214.124 90.5301C215.881 90.5301 217.525 90.1022 219.056 89.2463C220.588 88.3454 221.804 87.0841 222.705 85.4624C223.606 83.7957 224.056 81.8137 224.056 79.5163ZM252.282 66.6106C253.499 64.6286 255.075 63.0745 257.012 61.9484C258.994 60.8222 261.247 60.2592 263.769 60.2592V70.1918H261.269C258.296 70.1918 256.044 70.89 254.512 72.2865C253.026 73.6829 252.282 76.1154 252.282 79.5839V98.233H242.823V60.7997H252.282V66.6106ZM286.763 98.8411C283.159 98.8411 279.916 98.0528 277.033 96.4762C274.15 94.8545 271.875 92.5797 270.208 89.6517C268.587 86.7237 267.776 83.3453 267.776 79.5163C267.776 75.6874 268.609 72.309 270.276 69.381C271.988 66.453 274.307 64.2007 277.235 62.6241C280.163 61.0024 283.429 60.1916 287.033 60.1916C290.637 60.1916 293.902 61.0024 296.83 62.6241C299.758 64.2007 302.056 66.453 303.723 69.381C305.434 72.309 306.29 75.6874 306.29 79.5163C306.29 83.3453 305.412 86.7237 303.655 89.6517C301.943 92.5797 299.601 94.8545 296.628 96.4762C293.7 98.0528 290.411 98.8411 286.763 98.8411ZM286.763 90.5977C288.474 90.5977 290.074 90.1923 291.56 89.3814C293.092 88.5255 294.308 87.2643 295.209 85.5976C296.11 83.9309 296.56 81.9038 296.56 79.5163C296.56 75.9577 295.614 73.2324 293.722 71.3405C291.875 69.4035 289.601 68.435 286.898 68.435C284.195 68.435 281.92 69.4035 280.073 71.3405C278.271 73.2324 277.371 75.9577 277.371 79.5163C277.371 83.075 278.249 85.8228 280.006 87.7598C281.808 89.6517 284.06 90.5977 286.763 90.5977ZM329.851 98.8411C326.247 98.8411 323.004 98.0528 320.121 96.4762C317.238 94.8545 314.963 92.5797 313.297 89.6517C311.675 86.7237 310.864 83.3453 310.864 79.5163C310.864 75.6874 311.698 72.309 313.364 69.381C315.076 66.453 317.396 64.2007 320.324 62.6241C323.252 61.0024 326.518 60.1916 330.121 60.1916C333.725 60.1916 336.991 61.0024 339.919 62.6241C342.847 64.2007 345.144 66.453 346.811 69.381C348.523 72.309 349.379 75.6874 349.379 79.5163C349.379 83.3453 348.5 86.7237 346.743 89.6517C345.032 92.5797 342.689 94.8545 339.716 96.4762C336.788 98.0528 333.5 98.8411 329.851 98.8411ZM329.851 90.5977C331.563 90.5977 333.162 90.1923 334.649 89.3814C336.18 88.5255 337.396 87.2643 338.297 85.5976C339.198 83.9309 339.649 81.9038 339.649 79.5163C339.649 75.9577 338.703 73.2324 336.811 71.3405C334.964 69.4035 332.689 68.435 329.986 68.435C327.284 68.435 325.009 69.4035 323.162 71.3405C321.36 73.2324 320.459 75.9577 320.459 79.5163C320.459 83.075 321.337 85.8228 323.094 87.7598C324.896 89.6517 327.148 90.5977 329.851 90.5977ZM367.331 68.5702V86.6787C367.331 87.94 367.624 88.8634 368.21 89.449C368.84 89.9895 369.876 90.2598 371.318 90.2598H375.71V98.233H369.764C361.791 98.233 357.804 94.359 357.804 86.6111V68.5702H353.345V60.7997H357.804V51.5427H367.331V60.7997H375.71V68.5702H367.331Z" fill="white"/>
<g clip-path="url(#clip1_15_3871)">
<path d="M73.2574 35.6965V49.4508C71.9382 49.2332 70.6035 49.1242 69.2665 49.1248C67.9547 49.1246 66.645 49.2289 65.3497 49.4365V35.6965H73.2574Z" fill="#00FF47"/>
<path d="M73.2574 55.1254V92.4287C70.651 92.9817 67.958 92.9862 65.3497 92.442V55.1112C67.958 54.5667 70.6511 54.5715 73.2574 55.1254V55.1254Z" fill="white"/>
<path d="M69.2665 98.4284C70.6034 98.4288 71.9381 98.3202 73.2574 98.1034V114.304H65.3497V98.1167C66.6449 98.3248 67.9547 98.429 69.2665 98.4284V98.4284Z" fill="white"/>
<path d="M44.6142 73.7771C44.6108 75.5172 44.7939 77.2527 45.1606 78.9538H30V71.0443H44.7634C44.6642 71.9518 44.6144 72.8641 44.6142 73.7771V73.7771Z" fill="#00FF47"/>
<path d="M88.1415 71.0443C88.5207 73.6874 88.345 76.3805 87.6255 78.9519H50.9075C50.1867 76.3807 50.0109 73.6873 50.3916 71.0443H88.1415Z" fill="white"/>
<path d="M108.607 71.0443V78.9519H93.3695C93.7368 77.2509 93.9206 75.5154 93.9178 73.7752C93.9178 72.8629 93.8684 71.9512 93.7695 71.0443H108.607Z" fill="white"/>
<path d="M54.1772 54.2835C52.08 55.9098 50.2569 57.8616 48.7771 60.0646L38.7163 50.0038L44.3054 44.4128L54.1772 54.2835Z" fill="#00FF47"/>
<path d="M84.7692 84.8746C83.2192 87.0453 81.2305 88.8663 78.932 90.2195L69.3035 80.591L67.6663 78.9538L65.3497 76.6372L63.7125 75L59.7587 71.0443L52.8221 64.1077C54.175 61.8089 55.9956 59.82 58.1661 58.2697L69.3035 69.409L70.9407 71.0443L73.2574 73.3609L74.8946 74.9981L78.8484 78.9519L84.7692 84.8746Z" fill="white"/>
<path d="M99.8927 99.9962L94.3017 105.587L82.979 94.2655C85.1829 92.7866 87.1351 90.9634 88.761 88.8655L99.8927 99.9962Z" fill="white"/>
<path d="M69.2665 54.7064C70.6079 54.7058 71.9455 54.8462 73.2574 55.1254V65.4552L80.4135 58.302C82.5747 59.8633 84.3869 61.8577 85.7346 64.1581L78.8485 71.0443H88.1415C88.5207 73.6874 88.345 76.3805 87.6256 78.9519H78.8485L84.7692 84.8727C83.2193 87.0434 81.2306 88.8644 78.9321 90.2176L73.2574 84.543V92.4297C70.651 92.9826 67.958 92.9872 65.3498 92.443V84.5449L59.6485 90.2461C57.3474 88.8958 55.3526 87.081 53.7914 84.9174L59.7587 78.95H50.9075C50.187 76.3795 50.0112 73.6867 50.3916 71.0443H59.7587L52.8222 64.1078C54.175 61.809 55.9957 59.82 58.1662 58.2697L65.3479 65.4514V55.1112C66.636 54.8414 67.9486 54.7057 69.2646 54.7064M69.2646 54.6114C67.9422 54.6112 66.6233 54.7475 65.3289 55.018L65.2529 55.0342V65.2262L58.2356 58.207L58.1785 58.1499L58.113 58.1965C55.9337 59.7566 54.1044 61.7548 52.7424 64.0631L52.7053 64.1268L52.7567 64.1781L59.5297 70.9493H50.3127L50.3013 71.031C49.9188 73.6871 50.0955 76.3938 50.8201 78.9776L50.8401 79.047H59.5335L53.7278 84.8518L53.6708 84.9097L53.7183 84.9753C55.2839 87.1533 57.2889 88.9786 59.6039 90.3335L59.6675 90.3706L59.7198 90.3193L65.2595 84.7786V92.519L65.3355 92.5342C67.9552 93.0803 70.6598 93.0751 73.2774 92.519L73.3524 92.5038V84.7739L78.8637 90.2851L78.9159 90.3373L78.9786 90.3003C81.2869 88.9379 83.2852 87.1083 84.8452 84.9288L84.8927 84.8632L84.8357 84.8062L79.0765 79.0479H87.6959L87.7158 78.9785C88.4391 76.3945 88.6158 73.6881 88.2346 71.0319L88.2223 70.9502H79.0775L85.804 64.2237L85.8553 64.1724L85.8183 64.1087C84.466 61.7941 82.6428 59.7893 80.4667 58.2241L80.4011 58.1765L80.3441 58.2336L73.3524 65.2252V55.0485L73.2774 55.0323C71.9588 54.7522 70.6145 54.6111 69.2665 54.6114H69.2646Z" fill="#00FF19"/>
<path d="M101.79 36.923L31.2262 107.487L36.8177 113.078L107.381 42.5146L101.79 36.923Z" fill="#00FF19"/>
</g>
</g>
<defs>
<clipPath id="clip0_15_3871">
<rect width="400" height="150" fill="white"/>
</clipPath>
<clipPath id="clip1_15_3871">
<rect width="78.6071" height="78.6071" fill="white" transform="translate(30 35.6965)"/>
</clipPath>
</defs>
</svg>
